<svg xmlns="http://www.w3.org/2000/svg" xmlns:xlink="http://www.w3.org/1999/xlink" version="1.1" x="0px" y="0px" viewBox="0 0 612 990" enable-background="new 0 0 612 792" xml:space="preserve"><path d="M521.491,172.449c-43.513-12.081-88.575,13.397-100.656,56.904c-7.313,26.34-0.845,53.232,15.037,73.048l-97.21,126.647  c-22.118-5.771-45.6-8.892-69.945-8.892C137.21,420.156,30.6,510.774,30.6,622.556h476.234c0-76.647-50.129-143.33-124.034-177.688  l89.505-116.604c1.781,0.63,3.586,1.224,5.441,1.738c43.507,12.081,88.575-13.397,100.656-56.904S565.005,184.53,521.491,172.449z   M458.155,585.512h-15.324c-10.765-43.838-45.068-80.203-90.925-100.399c-14.229-6.267-29.56-10.961-45.649-13.856  c-12.142-2.185-24.7-3.366-37.546-3.366c-84.701,0-157.492,49.915-174.12,117.62H79.266  c16.585-76.053,96.476-132.498,189.438-132.498c16.383,0,32.344,1.793,47.638,5.098c15.765,3.409,30.82,8.433,44.835,14.914  C410.75,495.934,447.507,536.674,458.155,585.512z M511.295,208.826c-31.438-9.045-55.257,0.422-49.927-3.966  c14.621-12.044,34.688-16.995,54.327-11.542c18.709,5.196,32.883,18.684,39.645,35.392  C557.361,233.691,539.05,214.842,511.295,208.826z"/><text x="0" y="807" fill="#000000" font-size="5px" font-weight="bold" font-family="'Helvetica Neue', Helvetica, Arial-Unicode, Arial, Sans-serif">Created by Nick Abrams</text><text x="0" y="812" fill="#000000" font-size="5px" font-weight="bold" font-family="'Helvetica Neue', Helvetica, Arial-Unicode, Arial, Sans-serif">from the Noun Project</text></svg>